<?xml version="1.0" encoding="UTF-8"?>
<svg version="1.1" xmlns="http://www.w3.org/2000/svg" width="1024" height="1024">
<path d="M0 0 C0.81208332 -0.00175304 1.62416665 -0.00350607 2.46085855 -0.00531223 C5.2053636 -0.00999583 7.94981621 -0.00750069 10.69432354 -0.00507832 C12.67254117 -0.0069451 14.65075843 -0.00924527 16.62897509 -0.01194364 C22.08337298 -0.01808444 27.53775559 -0.01792537 32.99215615 -0.01674926 C38.8675311 -0.01654583 44.74290108 -0.02205853 50.61827374 -0.02680683 C62.13625146 -0.0351265 73.65422406 -0.03786227 85.17220453 -0.03841921 C94.53135118 -0.03887837 103.89049623 -0.04093469 113.24964237 -0.04411983 C115.94154173 -0.04501735 118.63344109 -0.04590716 121.32534045 -0.04679471 C122.32910282 -0.04712628 122.32910282 -0.04712628 123.35314322 -0.04746456 C142.18192371 -0.0536208 161.01070363 -0.05756492 179.83948517 -0.05712128 C180.54970873 -0.0571057 181.2599323 -0.05709012 181.99167779 -0.05707407 C185.59156119 -0.05699096 189.19144459 -0.05689192 192.79132799 -0.05678936 C193.50630483 -0.05676942 194.22128166 -0.05674947 194.95792446 -0.05672892 C196.40378282 -0.05668848 197.84964117 -0.05664669 199.29549953 -0.05660353 C221.79211004 -0.05599074 244.28870549 -0.06349724 266.7853117 -0.07717609 C292.04785613 -0.09253034 317.31039066 -0.10114271 342.57294005 -0.10021287 C345.26578248 -0.10013824 347.9586249 -0.10008953 350.65146732 -0.10005856 C351.31453551 -0.1000469 351.97760371 -0.10003525 352.66076487 -0.10002324 C362.67869927 -0.09999435 372.69662033 -0.10534863 382.71455097 -0.11339092 C394.10647807 -0.12247736 405.49838047 -0.12468652 416.89030961 -0.1178815 C422.70563125 -0.11460684 428.52090546 -0.11459358 434.33622265 -0.12323475 C439.65641193 -0.13105907 444.97651585 -0.12971021 450.29670294 -0.12095062 C452.22470226 -0.11940661 454.15270782 -0.12126541 456.08069978 -0.12681069 C458.695582 -0.13383538 461.31016185 -0.12860502 463.92503357 -0.12025452 C465.05523285 -0.12770679 465.05523285 -0.12770679 466.20826444 -0.13530961 C470.55532525 -0.10583845 474.16872497 0.34097368 478.1512785 2.12863445 C480.46459901 5.59861522 480.41279914 6.96884744 480.44180584 11.06540203 C480.4609454 12.89794285 480.4609454 12.89794285 480.48047161 14.76750469 C480.48352963 16.10272342 480.48575719 17.43794427 480.487216 18.7731657 C480.49364465 20.14456096 480.50037306 21.51595484 480.50738811 22.88734722 C480.51936406 25.76313739 480.52306876 28.63880743 480.52188396 31.51462078 C480.52168105 35.19003164 480.54895142 38.86466681 480.58342838 42.5398941 C480.60572998 45.37359902 480.60972049 48.20711846 480.60866451 51.04090214 C480.61215689 53.05163456 480.63380477 55.06230908 480.65576458 57.07292461 C480.59771526 68.68749164 480.59771526 68.68749164 476.1512785 73.12863445 C468.41084158 77.87191151 457.48977801 79.08442075 448.68985271 81.07443523 C445.8889303 81.70806679 443.09026902 82.35099777 440.2919035 82.99582195 C431.18408878 85.09017191 422.06875442 87.15016037 412.9483366 89.18887615 C332.54137555 104.6167959 332.54137555 104.6167959 263.87393475 145.4294157 C262.1512785 147.12863445 262.1512785 147.12863445 260.1512785 147.12863445 C259.89862225 147.69582195 259.645966 148.26300945 259.3856535 148.84738445 C257.990139 151.42643655 256.31278231 153.40595559 254.4012785 155.62863445 C240.83345633 172.34832819 238.66358937 191.46412088 240.32120037 212.26047039 C242.01367667 226.52669756 249.71996298 239.60357322 259.1512785 250.12863445 C259.84995037 250.95750164 260.54862225 251.78636883 261.268466 252.6403532 C266.67201364 258.91885252 272.5738192 264.11148988 279.1512785 269.12863445 C280.16577068 269.92011883 281.18026287 270.7116032 282.22549725 271.52707195 C297.21934282 282.93597392 313.77668883 290.54403625 331.70889568 296.13669109 C332.76496014 296.47305584 333.82102459 296.80942059 334.909091 297.1559782 C335.84897869 297.44206951 336.78886639 297.72816082 337.75723553 298.02292156 C340.63922218 299.35399616 341.52660387 300.41589712 343.1512785 303.12863445 C343.54568768 305.85383892 343.54568768 305.85383892 343.57120037 309.01120281 C343.58711224 310.19600735 343.6030241 311.38081188 343.61941814 312.60151958 C343.61961956 313.87761593 343.61982098 315.15371227 343.6200285 316.4684782 C343.62764202 317.78272274 343.63525555 319.09696728 343.64309978 320.45103741 C343.65653375 323.23094503 343.65811843 326.01056872 343.65225506 328.79049969 C343.64635946 332.34625657 343.67694635 335.90064775 343.71737194 339.45614052 C343.74949682 342.85612966 343.74513264 346.25583778 343.7450285 349.6559782 C343.76142376 350.93005032 343.77781902 352.20412243 343.79471111 353.51680279 C343.72587431 362.30470773 343.72587431 362.30470773 340.86416912 366.40817547 C337.24002811 368.70653056 334.31196071 369.25094111 330.06851482 369.26907635 C329.26418514 369.27478649 328.45985546 369.28049664 327.63115215 369.28637981 C326.75736416 369.28749767 325.88357616 369.28861553 324.98330975 369.28976727 C324.05590481 369.29473217 323.12849987 369.29969707 322.17299175 369.30481243 C319.10324643 369.31942099 316.03355288 369.32623588 312.9637785 369.33175945 C310.82347901 369.33751443 308.68317953 369.34327212 306.54288006 369.3490324 C302.05052736 369.35954037 297.55819254 369.36538357 293.06582928 369.36886883 C287.33421301 369.37433609 281.60283639 369.39832715 275.87129498 369.42684078 C271.44609187 369.44555355 267.0209453 369.45067747 262.59570599 369.4522047 C260.48438496 369.45521511 258.37306455 369.4631886 256.26178265 369.47638988 C235.03691123 369.59956909 235.03691123 369.59956909 225.1512785 366.12863445 C224.08259029 365.77052685 224.08259029 365.77052685 222.99231243 365.40518475 C221.06494973 364.72703477 219.16979256 363.9954994 217.27237225 363.23800945 C215.85641163 362.69019784 214.44013947 362.14319096 213.02359295 361.59689617 C211.93868069 361.17534252 211.93868069 361.17534252 210.83185101 360.74527264 C172.54733042 345.95358524 132.12735169 338.10064196 91.1512785 345.12863445 C90.45824627 345.23095379 89.76521404 345.33327312 89.05118084 345.43869305 C67.04969527 348.70450042 44.82661184 356.71283255 24.5887785 365.7887907 C17.18688995 368.67384499 10.10846494 369.42390692 2.21280193 369.38742352 C1.26366924 369.39092815 0.31453655 369.39443279 -0.66335773 369.39804363 C-3.77209704 369.40678134 -6.88060526 369.40104196 -9.9893465 369.39425945 C-12.16168988 369.39560794 -14.33403296 369.39755001 -16.50637531 369.40005779 C-21.04532481 369.40299788 -25.58419529 369.39874566 -30.12313557 369.38937664 C-35.93933201 369.37795554 -41.75534439 369.38456549 -47.57153416 369.39652157 C-52.051352 369.40374706 -56.53112616 369.40144952 -61.01094532 369.39626598 C-63.15594982 369.39493281 -65.30095829 369.39656556 -67.44595814 369.40122509 C-70.44002025 369.40630457 -73.43378323 369.39856115 -76.42782307 369.38742352 C-77.31207966 369.39147198 -78.19633625 369.39552044 -79.1073885 369.39969158 C-83.43974545 369.36983899 -86.94887872 369.25235376 -90.8487215 367.12863445 C-97.67159195 359.90109721 -95.00112216 345.15391059 -94.9790926 335.83371258 C-94.97373432 333.13508772 -94.9790617 330.43662925 -94.98544025 327.73800945 C-95.0016538 305.08925284 -95.0016538 305.08925284 -92.4268465 300.7106657 C-88.40969741 298.24559694 -84.10773411 297.10932262 -79.5987215 295.81613445 C-53.87891367 288.0081104 -30.87835522 275.11508986 -10.8487215 257.12863445 C-9.972159 256.34875164 -9.0955965 255.56886883 -8.1924715 254.7653532 C7.55511355 239.93969955 17.83292922 220.53487534 18.50357342 198.69626141 C18.57680156 191.62462712 17.85909129 185.26849365 15.8075285 178.44894695 C15.1512785 176.12863445 15.1512785 176.12863445 15.1512785 173.12863445 C14.4912785 172.79863445 13.8312785 172.46863445 13.1512785 172.12863445 C12.86381756 171.22113445 12.57635662 170.31363445 12.28018475 169.37863445 C9.29532167 160.78553383 0.94901579 154.33693712 -6.8487215 150.12863445 C-16.02073123 145.91273698 -25.10341333 143.85334983 -34.98354816 142.16089153 C-39.07755912 141.45594745 -43.16222085 140.70053211 -47.247159 139.9450407 C-48.06594532 139.7939938 -48.88473164 139.64294689 -49.72832966 139.48732281 C-75.19622783 134.73632398 -101.4125169 128.52216794 -125.2237215 118.15988445 C-127.84404697 116.94580827 -127.84404697 116.94580827 -130.8487215 117.12863445 C-130.8487215 116.46863445 -130.8487215 115.80863445 -130.8487215 115.12863445 C-132.10813557 114.74578289 -133.36754963 114.36293133 -134.66512775 113.9684782 C-140.32621632 112.07481589 -145.51230902 109.46683083 -150.7862215 106.69113445 C-151.7867757 106.16616375 -152.7873299 105.64119305 -153.81820393 105.10031414 C-170.19132702 96.35443848 -184.8845293 85.80526177 -198.43978596 73.13766766 C-202.11128381 69.72743968 -205.92808073 66.66436029 -210.00887775 63.76144695 C-212.23045959 61.78985203 -213.34411174 59.68721592 -214.8487215 57.12863445 C-216.55296244 55.07748826 -218.2746851 53.0660606 -220.0362215 51.06613445 C-237.12663994 31.24283994 -237.12663994 31.24283994 -236.7237215 22.37863445 C-235.69454822 19.73218888 -235.17772867 18.77354597 -232.8487215 17.12863445 C-230.04713929 16.84026496 -227.46918677 16.7369885 -224.66740131 16.7678709 C-223.82362625 16.76530763 -222.97985119 16.76274435 -222.11050719 16.7601034 C-219.272809 16.75514758 -216.43563856 16.77168799 -213.59798908 16.78805828 C-211.56801586 16.78890416 -209.53804172 16.78843017 -207.50806904 16.78673077 C-201.98768167 16.78586788 -196.46748873 16.80354115 -190.94714665 16.82445264 C-185.18157539 16.84317056 -179.41599998 16.84496602 -173.65040302 16.84852886 C-162.72817549 16.85786371 -151.80603774 16.88249697 -140.8838498 16.91257733 C-128.45113943 16.94607657 -116.01842484 16.96259608 -103.5856806 16.97766364 C-78.00664441 17.00904526 -52.42768798 17.06183371 -26.8487215 17.12863445 C-24.92992193 20.84550658 -23.48334904 23.71095272 -23.24862385 27.90890789 C-23.19201588 28.80293316 -23.13540791 29.69695843 -23.07708454 30.61807537 C-23.03008411 31.56515362 -22.98308369 32.51223186 -22.934659 33.48800945 C-22.87468739 34.47359844 -22.81471577 35.45918743 -22.75292683 36.47464275 C-22.56420101 39.60872731 -22.39311286 42.7434506 -22.2237215 45.87863445 C-22.04415146 49.0278321 -21.86088622 52.17675491 -21.67309284 55.32547283 C-21.55741045 57.28165912 -21.44704626 59.23816847 -21.3424654 61.19497967 C-21.29216175 62.07639629 -21.2418581 62.95781292 -21.1900301 63.86593914 C-21.12699192 65.03126171 -21.12699192 65.03126171 -21.06268024 66.22012615 C-20.95034442 68.21270647 -20.95034442 68.21270647 -19.8487215 70.12863445 C-18.0008694 59.0911286 -17.28805842 48.16649918 -16.7862215 37.00363445 C-15.91241812 18.37581756 -15.91241812 18.37581756 -15.40731525 11.1481657 C-15.34471516 10.24171307 -15.28211506 9.33526043 -15.21761799 8.40133953 C-14.68046431 5.09203204 -13.37073042 3.2797597 -10.8487215 1.12863445 C-7.18311366 -0.09323483 -3.81624447 -0.01031388 0 0 Z M52.4012785 263.87863445 C51.41236614 263.97120525 51.41236614 263.97120525 50.40347576 264.06564617 C39.82081147 265.31678579 30.731371 270.25928498 21.5262785 275.31613445 C-7.29246674 290.68152287 -38.38131691 298.14223206 -70.8487215 300.12863445 C-70.8487215 300.45863445 -70.8487215 300.78863445 -70.8487215 301.12863445 C-63.39794075 301.19873489 -55.94719501 301.25174594 -48.49615765 301.28407097 C-45.03478278 301.29960036 -41.57363666 301.32059932 -38.11239338 301.35495281 C-34.11562872 301.39436453 -30.11909705 301.4084485 -26.122159 301.4216032 C-24.90386402 301.43708706 -23.68556904 301.45257092 -22.43035603 301.46852398 C-11.11302004 301.47069692 -0.16972788 299.92614785 9.9012785 294.56613445 C10.55483318 294.22388836 11.20838787 293.88164227 11.88174725 293.52902508 C13.98462654 292.41795747 16.06960533 291.27890702 18.1512785 290.12863445 C18.87895428 289.72660809 19.60663006 289.32458172 20.35635662 288.91037273 C23.38627829 287.23022721 26.41193304 285.5425699 29.4349699 283.85007 C44.37468933 275.50650491 59.41306033 268.09100026 76.1512785 264.12863445 C76.1512785 263.79863445 76.1512785 263.46863445 76.1512785 263.12863445 C68.18172972 262.91982531 60.33131744 263.03120431 52.4012785 263.87863445 Z M168.1512785 263.12863445 C168.1512785 263.45863445 168.1512785 263.78863445 168.1512785 264.12863445 C169.23924725 264.43156414 170.327216 264.73449383 171.4481535 265.0466032 C191.07235076 270.59647335 208.87087617 279.29580119 226.2137785 290.00363445 C243.23600205 300.45371209 258.37189964 301.42655737 277.8387785 301.25363445 C279.81208125 301.2435856 281.78538895 301.23446312 283.75870037 301.2262907 C288.55635014 301.20442579 293.35375886 301.17000061 298.1512785 301.12863445 C298.1512785 300.46863445 298.1512785 299.80863445 298.1512785 299.12863445 C297.09553631 298.97007977 296.03979412 298.81152508 294.95205975 298.6481657 C264.87117236 293.97557365 238.78185901 284.85866528 211.7606535 270.8669157 C205.63763192 267.69799744 200.04696034 264.99377535 193.1512785 264.12863445 C192.04139568 263.96621258 192.04139568 263.96621258 190.909091 263.80050945 C183.35168636 262.85893117 175.75214478 263.03742406 168.1512785 263.12863445 Z M299.1512785 300.12863445 C299.1512785 300.45863445 299.1512785 300.78863445 299.1512785 301.12863445 C302.4512785 301.12863445 305.7512785 301.12863445 309.1512785 301.12863445 C309.1512785 300.79863445 309.1512785 300.46863445 309.1512785 300.12863445 C305.8512785 300.12863445 302.5512785 300.12863445 299.1512785 300.12863445 Z " fill="#000100" transform="translate(388.8487215042114,326.8713655471802)"/>
<path d="M0 0 C2 1 2 1 2 1 Z " fill="#1D1B1B" transform="translate(432,600)"/>
<path d="M0 0 C2 1 2 1 2 1 Z " fill="#1F1D1D" transform="translate(452,592)"/>
<path d="" fill="#565656" transform="translate(0,0)"/>
<path d="" fill="#282726" transform="translate(0,0)"/>
<path d="" fill="#262625" transform="translate(0,0)"/>
<path d="" fill="#292B28" transform="translate(0,0)"/>
<path d="" fill="#2A2729" transform="translate(0,0)"/>
<path d="" fill="#2A2927" transform="translate(0,0)"/>
<path d="" fill="#272829" transform="translate(0,0)"/>
<path d="" fill="#272422" transform="translate(0,0)"/>
<path d="" fill="#2C2826" transform="translate(0,0)"/>
<path d="" fill="#373637" transform="translate(0,0)"/>
<path d="" fill="#232122" transform="translate(0,0)"/>
<path d="" fill="#2F302E" transform="translate(0,0)"/>
<path d="" fill="#1D1F1C" transform="translate(0,0)"/>
<path d="" fill="#1F1E1C" transform="translate(0,0)"/>
<path d="" fill="#1D1B1B" transform="translate(0,0)"/>
<path d="" fill="#1E1D1A" transform="translate(0,0)"/>
<path d="" fill="#282A26" transform="translate(0,0)"/>
<path d="" fill="#20211F" transform="translate(0,0)"/>
<path d="" fill="#222523" transform="translate(0,0)"/>
<path d="" fill="#242524" transform="translate(0,0)"/>
<path d="" fill="#272527" transform="translate(0,0)"/>
<path d="" fill="#282B28" transform="translate(0,0)"/>
<path d="" fill="#262625" transform="translate(0,0)"/>
<path d="" fill="#222220" transform="translate(0,0)"/>
<path d="" fill="#262623" transform="translate(0,0)"/>
<path d="" fill="#1F1F1D" transform="translate(0,0)"/>
<path d="" fill="#2D2A2B" transform="translate(0,0)"/>
<path d="" fill="#2D2B2B" transform="translate(0,0)"/>
<path d="" fill="#2E2C2B" transform="translate(0,0)"/>
<path d="" fill="#2D2C2B" transform="translate(0,0)"/>
<path d="" fill="#2B2D2B" transform="translate(0,0)"/>
<path d="" fill="#222020" transform="translate(0,0)"/>
<path d="" fill="#222221" transform="translate(0,0)"/>
<path d="" fill="#22201F" transform="translate(0,0)"/>
<path d="" fill="#343231" transform="translate(0,0)"/>
<path d="" fill="#292728" transform="translate(0,0)"/>
<path d="" fill="#2B2A29" transform="translate(0,0)"/>
<path d="" fill="#2A2828" transform="translate(0,0)"/>
<path d="" fill="#292829" transform="translate(0,0)"/>
<path d="" fill="#636364" transform="translate(0,0)"/>
</svg>
