<svg version="1.1" id="Layer_1" xmlns="http://www.w3.org/2000/svg" xmlns:xlink="http://www.w3.org/1999/xlink" x="0px" y="0px"
	 width="100%" viewBox="0 0 800 352" enable-background="new 0 0 800 352" xml:space="preserve">
<path fill="#000000" opacity="1.000000" stroke="none" 
	d="
M207.709244,250.788971 
	C188.840729,260.099976 169.333084,265.964905 148.763931,268.075745 
	C140.984589,268.874084 133.453339,267.285400 126.442665,263.936859 
	C113.962837,257.976105 111.670189,243.273727 121.375366,231.906677 
	C130.963852,220.676285 143.269196,213.050568 156.140335,206.252441 
	C192.093201,187.263321 230.069901,173.637360 269.411835,163.650162 
	C269.573120,163.609192 269.752380,163.615463 269.900238,163.548676 
	C273.544678,161.903290 279.524567,163.876038 280.316132,157.837204 
	C281.222748,150.920486 279.603973,144.428314 273.610565,140.052673 
	C265.141663,133.869720 255.259079,132.680557 245.123688,132.695160 
	C227.681793,132.720291 211.534256,138.894226 194.989975,143.202057 
	C192.655273,143.809952 192.004074,145.656723 191.153381,147.436279 
	C184.475861,161.404968 177.800415,175.374710 171.160049,189.361084 
	C170.366592,191.032333 169.686676,192.735352 167.956299,193.681778 
	C164.539383,195.550644 161.062302,193.727692 160.718307,189.827194 
	C160.379639,185.987167 162.166351,182.703079 163.701675,179.391403 
	C179.478134,145.361603 197.646927,112.623222 217.086502,80.570961 
	C219.503021,76.586594 221.744690,72.494720 224.214447,68.544624 
	C225.972305,65.733131 228.364182,63.029716 231.923035,65.039307 
	C235.606445,67.119232 234.920288,70.808571 233.147400,73.843407 
	C225.083725,87.646881 216.820831,101.333809 208.686142,115.096077 
	C206.499786,118.794914 204.512390,122.611351 202.524796,126.208885 
	C203.860672,127.968124 205.048721,127.025085 205.947540,126.651405 
	C235.925583,114.188431 264.672791,99.670975 288.083313,76.480087 
	C292.967255,71.641998 296.855896,66.042542 299.160370,59.454937 
	C301.688751,52.227264 300.065918,46.535530 293.711029,42.065392 
	C287.420654,37.640629 280.234833,35.773174 272.602112,35.259048 
	C255.326675,34.095402 238.880936,37.966011 222.598160,43.116264 
	C190.783752,53.179169 162.787384,69.735176 138.292252,92.324501 
	C134.834991,95.512779 131.995850,99.202530 129.286713,102.999489 
	C127.782303,105.107994 127.136993,107.216812 128.523605,109.935181 
	C130.513901,113.837082 128.315552,116.231567 124.701515,117.586906 
	C120.530228,119.151222 116.942734,117.735703 115.857361,113.812263 
	C114.653564,109.460747 115.231613,105.241089 117.875900,101.421432 
	C126.143814,89.478493 137.037033,80.171577 148.388474,71.397758 
	C173.216248,52.207760 201.023315,38.925343 231.207169,30.625002 
	C246.883194,26.314217 262.825043,23.944990 279.103302,26.699654 
	C288.447327,28.280884 297.228912,31.362484 303.959351,38.415192 
	C313.392151,48.299622 313.559540,61.708275 304.812042,75.121155 
	C295.756805,89.005920 282.926208,98.733894 269.239929,107.477242 
	C261.436584,112.462326 253.407547,117.094109 244.863892,122.257401 
	C268.543732,124.482780 290.425262,128.353317 292.908508,158.391663 
	C302.106201,156.511490 311.075439,155.154160 320.095093,154.149567 
	C322.894745,153.837738 324.025238,151.228943 325.500366,149.274399 
	C329.885803,143.463547 335.135834,138.713226 341.719635,135.504990 
	C351.397919,130.788834 359.057007,134.655945 360.941620,145.211136 
	C361.843292,150.261124 360.669647,155.158279 359.882782,160.082657 
	C359.627563,161.679901 359.262878,163.259659 358.808075,165.554825 
	C366.556091,164.962128 372.652039,161.796753 378.617950,158.324203 
	C383.619568,155.412933 387.437683,151.887207 388.685028,145.573654 
	C390.226501,137.771408 393.966705,131.156250 402.884766,129.359344 
	C406.074738,128.716599 408.705536,129.366486 409.939514,132.366714 
	C411.136108,135.276123 409.659790,137.517136 406.891418,138.860123 
	C400.594879,141.914688 398.515991,147.765930 397.580505,153.949097 
	C396.595917,160.456848 398.878418,166.635544 400.609070,173.871536 
	C412.726288,165.967392 425.843811,160.863617 433.493042,148.396729 
	C434.969727,145.989960 436.486847,143.554123 438.345520,141.449875 
	C440.441010,139.077545 443.061584,137.524689 446.217773,139.892929 
	C449.308777,142.212219 448.795288,144.966599 447.042999,147.827209 
	C441.727448,156.504898 436.893219,165.430939 433.254150,174.957275 
	C431.725037,178.960205 430.033936,182.949905 430.365021,187.392059 
	C432.898499,188.316025 433.859436,186.321045 435.055237,185.166489 
	C444.342865,176.198853 451.637970,165.650299 458.705963,154.942444 
	C462.617401,149.016724 466.070190,146.617874 469.100525,148.791809 
	C473.416931,151.888397 471.390442,156.383911 470.192749,160.165634 
	C468.173828,166.540482 466.978424,173.079163 465.620941,179.584595 
	C465.026123,182.435059 464.887390,185.436020 465.776245,188.311920 
	C469.107788,188.680786 470.737610,186.611176 472.556519,185.022720 
	C481.369568,177.326263 485.400238,166.559326 490.757751,156.634109 
	C493.804474,150.989807 495.129578,144.804321 496.770477,138.712524 
	C497.660980,135.406693 499.413605,133.192078 503.118134,133.883316 
	C506.746490,134.560364 507.114471,137.590881 506.945709,140.495316 
	C506.832031,142.452225 506.145721,144.395615 505.574158,146.302643 
	C503.391083,153.585968 510.208160,162.115173 517.909668,161.772049 
	C520.537598,161.654953 521.560181,159.784576 522.682068,157.914062 
	C527.583496,149.741577 533.209351,142.131638 540.018433,135.423492 
	C543.528687,131.965256 547.646667,129.449692 552.247803,127.873337 
	C560.348328,125.098114 566.739075,129.871078 566.547241,138.382736 
	C566.430420,143.564819 564.417542,148.154922 561.546692,152.295914 
	C554.885132,161.904739 545.920410,168.526459 534.839478,172.333725 
	C532.076660,173.283005 528.895264,173.810074 527.676514,177.154739 
	C525.216614,183.905487 528.063110,187.777618 535.253906,187.795822 
	C540.703186,187.809616 545.293335,185.403000 549.741943,182.850540 
	C561.936401,175.853638 572.632996,166.859604 583.113525,157.542984 
	C589.974609,151.443878 591.199829,142.762558 594.203674,134.988907 
	C604.442322,108.492264 616.216614,82.860008 633.376099,60.005947 
	C635.283508,57.465595 637.277527,54.976078 639.907593,53.166561 
	C643.341125,50.804222 647.012207,47.932755 651.293884,50.634636 
	C655.696899,53.413116 655.922607,58.187210 655.069275,62.743481 
	C653.781372,69.620644 651.731689,76.302361 648.875793,82.730774 
	C637.469727,108.405190 621.827271,131.278488 602.814941,151.846100 
	C596.349487,158.840500 596.050293,167.920456 593.367920,176.198593 
	C592.512878,178.837219 592.344788,181.771759 592.286987,184.579651 
	C592.177124,189.907379 593.611938,190.817917 598.146851,188.136841 
	C605.939026,183.530029 612.248291,177.018936 619.154541,171.273254 
	C630.028931,162.226303 635.784790,150.251938 640.486511,137.140869 
	C650.186035,110.092911 662.717285,84.371872 680.477905,61.523960 
	C684.870911,55.872669 689.577820,50.460182 695.775208,46.606628 
	C699.208984,44.471519 702.908813,43.067692 706.525330,45.514889 
	C710.270386,48.049107 710.645508,52.176666 709.881104,56.314678 
	C708.504578,63.766171 705.392517,70.600754 701.873230,77.224319 
	C688.203064,102.952522 671.125244,126.396217 652.045105,148.249084 
	C644.680298,156.684189 642.845886,166.410263 640.345825,176.325836 
	C639.574219,179.386063 639.033508,182.518906 639.418823,185.713654 
	C640.077209,191.173798 643.399658,193.667191 648.792664,192.578766 
	C651.742371,191.983429 654.476807,190.795258 657.040955,189.139908 
	C671.564270,179.764084 684.556030,168.708588 695.030518,154.851974 
	C696.139221,153.385284 697.282898,151.898041 699.334839,151.735580 
	C700.839722,151.616409 702.389160,151.507736 703.470398,152.874481 
	C704.543945,154.231552 704.438416,155.767517 703.541138,157.072403 
	C701.281372,160.358627 699.076294,163.715195 696.496216,166.742615 
	C687.269531,177.568817 676.899536,187.176575 665.149231,195.237656 
	C661.572510,197.691422 657.853943,199.872391 653.622009,201.105270 
	C638.453247,205.524307 627.756714,197.544876 627.723816,181.684250 
	C627.720398,180.042480 627.981750,178.400146 628.160400,176.282211 
	C622.332214,181.332001 617.353882,186.862305 611.377930,191.253815 
	C608.152344,193.624207 604.965027,195.994354 601.274780,197.646118 
	C590.607788,202.420670 581.104675,196.599060 580.740051,184.875412 
	C580.628662,181.296097 581.022461,177.701050 581.183960,174.132492 
	C578.424744,173.185425 577.266113,175.357101 575.842102,176.453583 
	C566.595642,183.573395 557.454285,190.862198 546.495178,195.258087 
	C540.400330,197.702805 534.068176,198.797638 527.470886,197.380127 
	C520.528809,195.888550 515.831787,190.400467 515.659912,183.308640 
	C515.575745,179.837158 515.575623,176.362274 516.361511,172.836487 
	C510.635468,169.939438 504.826843,167.801208 499.813080,163.379776 
	C496.274872,166.893631 494.698151,171.344711 492.332397,175.213898 
	C488.147522,182.058289 483.969971,188.861755 477.782410,194.138718 
	C476.519684,195.215622 475.214752,196.279953 473.799408,197.135132 
	C463.577179,203.311600 455.092010,198.698105 454.718964,186.774231 
	C454.636993,184.154404 454.706940,181.529831 454.706940,177.932938 
	C449.756836,184.044357 445.773499,189.775681 440.415161,194.217804 
	C436.048340,197.837967 431.511139,201.990845 425.292786,199.190933 
	C418.878510,196.302780 418.561157,190.193390 418.938324,184.189560 
	C419.143463,180.924179 419.832642,177.689194 420.452911,173.409531 
	C413.465668,177.111115 407.057037,180.426117 400.743408,183.913177 
	C399.348328,184.683701 399.499908,186.532532 399.082001,187.957184 
	C395.694489,199.505066 386.912964,206.803680 377.093109,206.368225 
	C373.597260,206.213196 370.565033,204.870132 367.999908,202.688416 
	C362.496094,198.007324 363.863831,189.077789 370.552246,186.201584 
	C374.520477,184.495132 378.718079,183.329636 382.731384,181.718704 
	C389.800629,178.881165 390.240570,177.971558 388.572449,170.475052 
	C388.147919,168.567291 387.457886,166.718613 386.740845,164.350616 
	C380.255920,167.206726 374.786713,171.065903 368.468445,173.025009 
	C366.247284,173.713715 363.938629,175.203491 361.827209,174.960587 
	C355.374634,174.218216 352.838806,178.446228 349.310852,182.624283 
	C342.641754,190.522263 336.514435,199.473328 325.132874,201.606934 
	C316.327637,203.257568 309.412567,197.868546 308.685638,188.841125 
	C308.113068,181.730789 310.692688,175.437317 313.161285,169.073792 
	C313.689789,167.711334 314.326996,166.391037 315.163177,164.482971 
	C307.287018,164.203598 300.299744,166.195953 293.283813,167.854721 
	C291.656708,168.239410 291.180511,169.959885 290.762543,171.371490 
	C285.448608,189.318558 273.504303,202.718796 260.411591,215.222382 
	C244.979279,229.960281 227.238525,241.392960 207.709244,250.788971 
M264.638641,174.342148 
	C248.357330,178.533554 232.328079,183.545456 216.587982,189.440811 
	C191.426270,198.864960 167.260010,210.345413 144.724609,225.063477 
	C138.129364,229.370880 132.154724,234.475204 128.339737,241.546921 
	C124.436981,248.781326 127.060280,254.189026 135.117493,255.918015 
	C143.441467,257.704254 151.724945,256.603577 159.856140,254.902969 
	C186.155441,249.402512 209.903290,238.033783 231.590027,222.393997 
	C248.423630,210.254166 263.739716,196.488281 274.674042,178.496078 
	C275.934418,176.422134 277.412872,174.382446 276.727142,171.519775 
	C272.655090,171.791138 269.045441,172.975815 264.638641,174.342148 
M666.993835,106.424126 
	C664.355652,112.032532 661.345581,117.492737 659.666138,124.139809 
	C672.020630,111.331451 697.908875,67.766548 696.673828,61.205128 
	C684.506348,74.871574 675.114563,89.775337 666.993835,106.424126 
M339.445374,179.013046 
	C340.247528,177.356522 342.612213,175.743301 340.426514,173.823761 
	C336.819305,170.655792 333.866180,166.951675 330.852325,162.495056 
	C325.195496,170.293381 321.041077,178.052094 319.429962,187.002563 
	C319.106079,188.801895 319.216217,190.690109 321.030151,191.911041 
	C322.942474,193.198181 324.626068,192.104752 326.105011,191.174973 
	C331.066986,188.055466 334.960419,183.707825 339.445374,179.013046 
M636.609070,76.073837 
	C631.571838,83.935051 627.173584,92.160202 622.952148,100.472488 
	C618.821838,108.605621 614.473450,116.666794 612.275269,125.653069 
	C626.234497,107.209259 638.112000,87.669907 645.119568,65.465508 
	C641.567749,68.175270 639.437256,71.941345 636.609070,76.073837 
M342.735748,147.222244 
	C336.363190,153.361282 338.024414,161.252914 346.791901,164.527420 
	C350.270935,158.086807 352.197906,151.363983 351.565704,143.913940 
	C347.783783,143.244476 345.748810,145.545715 342.735748,147.222244 
M540.667480,157.991653 
	C547.250610,153.347504 553.640930,148.558273 554.451355,139.527786 
	C546.006653,143.619308 541.488403,151.169235 537.318848,159.175858 
	C538.250977,158.900040 539.183105,158.624237 540.667480,157.991653 
z"/>
<path fill="#000000" opacity="1.000000" stroke="none" 
	d="
M280.664276,261.771088 
	C269.080414,264.439972 257.875305,266.896454 246.731522,269.605103 
	C242.990189,270.514526 239.171661,271.090393 238.204468,266.566406 
	C237.328827,262.470612 241.249298,260.888824 244.421982,260.076996 
	C254.717972,257.442505 265.041138,254.843964 275.463928,252.790451 
	C294.195374,249.099976 313.010376,245.834671 331.783966,242.356583 
	C359.877075,237.151917 388.129486,233.277786 416.567993,230.324310 
	C440.194397,227.870590 463.888580,226.349182 487.512482,223.960297 
	C496.110229,223.090881 504.812653,223.301651 513.459473,222.864334 
	C546.910767,221.172546 580.398254,221.089966 613.848877,221.951385 
	C634.077332,222.472321 654.423523,223.003342 674.436768,226.867615 
	C677.209839,227.403046 680.114014,227.507858 682.589478,229.025238 
	C685.068665,230.544891 686.392334,232.844116 685.755005,235.774414 
	C685.098145,238.795273 682.705200,239.377533 679.978333,239.342010 
	C671.123779,239.226685 662.532532,237.035828 653.820923,235.866287 
	C640.457031,234.072159 627.051453,233.065414 613.623291,232.382919 
	C593.669312,231.368744 573.682800,230.867371 553.706848,231.416092 
	C524.952332,232.205948 496.221283,233.246674 467.538605,235.918900 
	C448.345734,237.706970 429.150421,239.546204 409.984253,241.548370 
	C387.369324,243.910782 364.813141,246.851608 342.350555,250.563217 
	C321.859741,253.949036 301.290771,256.822449 280.664276,261.771088 
z"/>
<path fill="#000000" opacity="1.000000" stroke="none" 
	d="
M528.670776,318.985291 
	C528.672363,314.326843 528.569153,310.160645 528.723022,306.003967 
	C528.795105,304.057007 527.766541,301.355743 531.047180,300.816010 
	C533.823975,300.359161 536.306335,300.660370 537.945984,303.463257 
	C540.717224,308.200592 543.621521,312.860077 546.915771,318.286865 
	C547.990540,313.268860 547.569092,308.921570 547.666016,304.622894 
	C547.716125,302.398193 548.100525,300.724243 550.922913,300.717133 
	C553.667725,300.710236 554.291565,302.215363 554.285522,304.527008 
	C554.266357,311.852478 554.340149,319.178589 554.262634,326.503235 
	C554.242981,328.362885 554.812317,330.744019 551.886597,331.227814 
	C549.356384,331.646179 547.320923,330.974731 545.916870,328.664398 
	C542.815552,323.561127 539.658813,318.491577 536.020508,312.590698 
	C534.819885,317.965576 535.509705,322.500519 535.307434,326.968994 
	C535.205017,329.232544 535.277527,331.329010 532.009216,331.312408 
	C528.799316,331.296082 528.682861,329.273834 528.688171,326.973541 
	C528.693970,324.476196 528.677917,321.978821 528.670776,318.985291 
z"/>
<path fill="#000000" opacity="1.000000" stroke="none" 
	d="
M184.446213,325.269287 
	C186.854736,324.319122 189.425339,324.136810 190.020203,321.248596 
	C188.612747,319.740295 186.825714,320.512146 185.261520,320.324097 
	C183.367218,320.096344 182.696823,319.111572 182.769119,317.322845 
	C182.833633,315.727417 183.570007,314.804565 185.184326,314.783356 
	C188.513870,314.739655 191.846054,314.687714 195.173660,314.774170 
	C197.666824,314.838898 197.364227,316.774139 197.359436,318.433533 
	C197.343933,323.801697 193.899933,328.492493 188.489975,330.520752 
	C182.531204,332.754700 175.789917,331.191223 171.537582,326.588928 
	C166.389252,321.016907 166.058029,311.601929 170.810349,305.916138 
	C175.590485,300.197052 184.955139,298.874695 191.258286,303.224518 
	C193.680557,304.896149 196.074890,306.862701 195.540237,310.457489 
	C193.317719,311.619843 191.176117,311.730255 189.405563,310.095673 
	C185.734085,306.706116 181.685638,306.114044 177.559082,308.709747 
	C173.748566,311.106567 173.526321,315.177399 174.534225,319.014526 
	C175.767395,323.709259 179.547699,325.292145 184.446213,325.269287 
z"/>
<path fill="#000000" opacity="1.000000" stroke="none" 
	d="
M377.868011,308.439636 
	C380.664551,315.480988 380.532227,321.884644 375.212402,327.220886 
	C370.693695,331.753571 365.040131,332.643463 359.110718,330.491852 
	C353.136353,328.323975 348.811554,321.750916 349.029449,315.795807 
	C349.284912,308.814301 353.731384,303.143616 360.506683,301.158691 
	C366.768707,299.324127 373.134674,301.894165 377.868011,308.439636 
M372.468201,312.436707 
	C371.929596,311.602509 371.505280,310.659668 370.833008,309.952606 
	C367.611481,306.564423 363.759644,306.405457 359.904846,308.464935 
	C356.477936,310.295837 355.024628,315.423889 356.570251,319.571777 
	C358.027313,323.482025 360.976990,325.203308 365.183197,324.860840 
	C370.894409,324.395874 373.141235,320.947937 372.468201,312.436707 
z"/>
<path fill="#000000" opacity="1.000000" stroke="none" 
	d="
M513.708740,302.987610 
	C520.319946,308.564911 522.375549,314.775299 520.027832,321.277466 
	C517.714539,327.684021 512.338379,331.462341 505.513580,331.441589 
	C498.994598,331.421783 494.447052,328.202972 491.672546,322.495361 
	C489.121887,317.248230 490.406464,309.443695 494.584747,305.271332 
	C499.093597,300.768829 504.517365,299.463928 510.625885,301.618256 
	C511.564148,301.949158 512.461487,302.395966 513.708740,302.987610 
M506.297638,324.839844 
	C511.691467,323.661560 514.943970,319.477051 514.125916,314.768341 
	C513.250732,309.731293 509.764587,306.989532 504.672668,307.333679 
	C500.430847,307.620331 496.875824,311.555786 496.812836,316.034607 
	C496.743927,320.933289 499.838318,324.076630 506.297638,324.839844 
z"/>
<path fill="#000000" opacity="1.000000" stroke="none" 
	d="
M133.773682,301.736053 
	C141.753922,304.794312 145.592926,311.403046 144.217285,319.087555 
	C142.910889,326.385315 136.942917,331.271729 128.842819,331.308197 
	C116.807571,331.362396 118.855545,332.397156 118.669365,321.408264 
	C118.576538,315.929169 118.779503,310.443695 118.621895,304.967621 
	C118.528236,301.713715 119.852066,300.519745 123.025261,300.634644 
	C126.502449,300.760529 130.000061,300.471802 133.773682,301.736053 
M125.180939,317.416138 
	C125.975525,320.003204 123.160683,324.281281 128.402939,324.774750 
	C132.665329,325.176025 135.767334,323.413086 137.170456,319.140411 
	C138.576492,314.858887 137.028152,310.422791 133.370743,308.411163 
	C128.282120,305.612305 125.236641,307.315002 125.160454,313.009094 
	C125.144981,314.165375 125.170082,315.322205 125.180939,317.416138 
z"/>
<path fill="#000000" opacity="1.000000" stroke="none" 
	d="
M248.698425,317.852478 
	C250.604462,312.826385 252.429596,308.186157 254.150681,303.507599 
	C254.881149,301.521881 256.111359,300.565308 258.260010,300.677917 
	C259.952759,300.766571 261.735962,300.659546 262.445679,302.623260 
	C265.765045,311.807159 269.031799,321.010101 272.373810,330.364319 
	C268.637177,331.841766 266.370361,331.747650 264.470947,328.201019 
	C262.693329,324.881775 254.233032,325.026337 252.389786,328.385223 
	C250.586182,331.671936 248.252731,331.675720 244.939102,330.837341 
	C244.719894,326.210419 247.793747,322.511047 248.698425,317.852478 
M259.600616,314.435913 
	C259.189667,313.859375 259.285767,312.826599 258.030334,312.831238 
	C257.228363,314.994415 255.713242,316.995575 256.362274,319.518585 
	C258.085449,319.921814 259.503235,320.293365 260.801331,319.217651 
	C261.105194,317.639465 260.331116,316.352539 259.600616,314.435913 
z"/>
<path fill="#000000" opacity="1.000000" stroke="none" 
	d="
M565.427368,303.381287 
	C572.197815,299.266418 579.456177,299.981873 582.741699,304.900726 
	C583.808350,306.497711 585.390869,308.547699 583.338196,310.225098 
	C581.492126,311.733734 579.308167,311.304413 577.567200,309.398560 
	C576.799927,308.558655 575.900818,307.732544 574.894958,307.240875 
	C573.146118,306.386047 571.519043,306.903900 570.703491,308.672638 
	C569.903015,310.408630 571.114136,311.606110 572.517578,312.254730 
	C573.857605,312.874023 575.400635,313.039948 576.832214,313.477936 
	C582.499451,315.211823 585.786621,319.433624 584.966064,323.877747 
	C584.075623,328.700287 578.236816,332.560577 572.700989,331.986664 
	C566.544250,331.348450 562.884460,328.031830 562.407166,322.452789 
	C564.803650,321.406677 566.976807,321.108215 568.988037,323.497467 
	C569.693481,324.335602 570.869995,324.906952 571.942810,325.278534 
	C573.998169,325.990417 576.182861,325.813507 577.139465,323.671051 
	C578.282288,321.111389 576.118469,320.151367 574.213745,319.415741 
	C572.664856,318.817566 570.997070,318.527069 569.448547,317.928284 
	C562.588806,315.275726 560.982849,309.885956 565.427368,303.381287 
z"/>
<path fill="#000000" opacity="1.000000" stroke="none" 
	d="
M339.826355,316.328857 
	C343.266174,319.790894 343.304169,323.659149 341.313538,327.130646 
	C339.046600,331.084015 334.749695,332.261078 330.486176,331.875549 
	C326.055634,331.474884 322.123840,329.590759 320.198029,325.090332 
	C319.719025,323.970947 319.605804,322.582336 320.985718,322.117340 
	C322.689575,321.543182 324.662018,321.118317 326.100098,322.699493 
	C327.617371,324.367767 329.200195,325.743744 331.595428,325.578339 
	C333.340027,325.457855 334.989563,324.877747 335.398254,322.974640 
	C335.792664,321.137787 334.286224,320.290863 332.913727,319.712372 
	C331.393463,319.071533 329.748749,318.729462 328.165985,318.232605 
	C323.045532,316.625183 320.166046,312.813629 320.749695,308.435272 
	C321.357574,303.874969 325.393127,300.766235 330.838989,300.676941 
	C335.085297,300.607361 338.752045,301.817902 340.955261,305.728607 
	C341.723602,307.092316 342.903717,308.806946 341.006226,310.159882 
	C339.367950,311.327942 337.531219,311.192963 335.946259,309.871918 
	C335.189606,309.241272 334.657837,308.331818 333.879547,307.738342 
	C332.614624,306.773743 331.189728,306.458618 329.703522,307.355469 
	C328.778809,307.913452 328.213562,308.717285 328.313599,309.807220 
	C328.478058,311.598755 329.815552,312.255188 331.320099,312.687897 
	C334.181458,313.510895 337.192902,313.967194 339.826355,316.328857 
z"/>
<path fill="#000000" opacity="1.000000" stroke="none" 
	d="
M420.304138,314.838806 
	C420.328430,316.975983 420.265808,318.647064 420.395538,320.303131 
	C420.624481,323.226837 422.164215,324.823975 425.217621,324.893066 
	C428.450317,324.966156 430.397491,323.428375 430.538116,320.263245 
	C430.752228,315.443970 430.630402,310.610077 430.668182,305.782532 
	C430.687866,303.268158 430.345367,300.560608 434.281677,300.729004 
	C438.014648,300.888641 437.274963,303.627563 437.314453,305.809601 
	C437.401855,310.636383 437.456390,315.469635 437.306549,320.293488 
	C437.088684,327.307434 432.487518,331.681580 425.480255,331.774994 
	C418.745026,331.864746 413.873810,327.190613 413.690643,320.234772 
	C413.554779,315.077026 413.670868,309.912689 413.670258,304.751282 
	C413.670013,302.607544 413.885010,300.792969 416.780273,300.714874 
	C419.884796,300.631134 420.326538,302.440887 420.299225,304.875671 
	C420.263733,308.038666 420.299072,311.202484 420.304138,314.838806 
z"/>
<path fill="#000000" opacity="1.000000" stroke="none" 
	d="
M680.081665,321.791504 
	C682.329712,320.935364 684.615723,320.184082 685.788757,322.239594 
	C686.924744,324.230133 685.161316,326.051697 683.862610,327.488342 
	C678.884338,332.995422 669.195923,333.010376 663.588318,327.631042 
	C656.997742,321.308868 656.800171,311.269012 663.140442,304.882446 
	C668.567444,299.415863 678.289978,299.228943 683.426331,304.489624 
	C684.850098,305.947906 685.796204,307.626740 686.092651,309.866974 
	C683.635986,311.539062 681.503418,311.169678 679.212952,309.629150 
	C674.318848,306.337402 670.348694,306.627655 667.351501,310.308075 
	C664.417664,313.910675 664.602417,319.336853 667.770630,322.621552 
	C670.804138,325.766510 675.477966,325.532074 680.081665,321.791504 
z"/>
<path fill="#000000" opacity="1.000000" stroke="none" 
	d="
M227.064972,300.662628 
	C231.375427,300.667480 235.198593,300.695343 239.021378,300.668610 
	C241.082520,300.654236 242.671631,301.131866 242.689651,303.617828 
	C242.707169,306.034332 241.626022,307.511780 239.097885,307.253082 
	C234.812012,306.814575 234.145981,309.168793 234.276260,312.719299 
	C234.459015,317.698700 234.272629,322.690643 234.309418,327.676758 
	C234.327454,330.120575 233.375580,331.327911 230.775925,331.331635 
	C228.228760,331.335266 227.131714,330.224274 227.129929,327.756378 
	C227.126083,322.437683 227.100388,317.118835 227.048111,311.800415 
	C227.025864,309.535767 226.845001,307.345306 223.721390,307.338531 
	C221.133774,307.332916 218.501770,307.369751 218.820419,303.539795 
	C219.126160,299.865082 221.951584,300.905884 224.085709,300.680969 
	C224.907806,300.594299 225.746429,300.664276 227.064972,300.662628 
z"/>
<path fill="#000000" opacity="1.000000" stroke="none" 
	d="
M462.476196,307.435852 
	C459.764465,308.351379 460.126953,310.380432 460.101898,312.150269 
	C460.035858,316.815857 460.102631,321.483185 460.049316,326.149048 
	C460.020813,328.644196 460.303436,331.285706 456.441956,331.359222 
	C452.627808,331.431763 452.695831,328.994507 452.704834,326.373352 
	C452.721405,321.540375 452.591461,316.704285 452.726868,311.875214 
	C452.811554,308.856110 452.047424,307.013733 448.582062,307.295502 
	C446.146912,307.493500 444.287323,306.846375 444.291473,303.834961 
	C444.295959,300.576752 446.540741,300.672485 448.779297,300.672211 
	C453.445740,300.671600 458.114258,300.583282 462.777710,300.699829 
	C465.069336,300.757080 468.141235,299.796570 468.186493,303.897583 
	C468.230591,307.893372 465.244751,307.117523 462.476196,307.435852 
z"/>
<path fill="#000000" opacity="1.000000" stroke="none" 
	d="
M608.118286,305.302917 
	C608.176208,302.448608 608.655640,300.583130 611.750732,300.694733 
	C615.037415,300.813263 614.866089,303.107849 614.899170,305.267151 
	C614.965576,309.598846 615.193909,313.951050 614.876099,318.259460 
	C614.519897,323.088928 615.947998,325.670166 621.218933,324.917267 
	C622.031982,324.801147 622.881775,324.942657 623.714600,324.965240 
	C625.819214,325.022308 627.187866,325.774445 627.230896,328.190918 
	C627.274841,330.659882 625.932251,331.349365 623.783752,331.338287 
	C619.951416,331.318512 616.114624,331.235565 612.287659,331.384003 
	C609.255798,331.501617 608.198914,330.282532 608.243652,327.256012 
	C608.349304,320.094818 608.170410,312.929443 608.118286,305.302917 
z"/>
<path fill="#000000" opacity="1.000000" stroke="none" 
	d="
M387.731567,327.797058 
	C387.695374,320.342529 387.613586,313.369202 387.714111,306.398529 
	C387.748932,303.984497 386.662811,300.662537 391.126495,300.750793 
	C395.195526,300.831268 394.239349,303.880005 394.300690,306.160187 
	C394.425598,310.805176 394.533539,315.465485 394.290802,320.100769 
	C394.093475,323.868774 395.655457,324.942047 399.232758,325.034058 
	C401.953705,325.104004 406.586182,323.155884 406.653412,328.141449 
	C406.723236,333.317810 402.031830,330.884674 399.356842,331.266052 
	C396.755493,331.636902 394.056671,331.305695 391.400818,331.318115 
	C389.311676,331.327881 387.811676,330.684052 387.731567,327.797058 
z"/>
<path fill="#000000" opacity="1.000000" stroke="none" 
	d="
M279.912598,302.325226 
	C284.977661,299.857330 286.110382,300.441864 286.216339,305.310364 
	C286.321198,310.127594 286.441071,314.958740 286.191467,319.764984 
	C285.988800,323.667419 287.427979,325.035828 291.338654,325.039246 
	C294.046234,325.041626 298.710114,323.204163 298.619598,328.301788 
	C298.527527,333.489563 293.829803,331.172516 291.221527,331.239594 
	C279.675690,331.536621 279.655579,331.386078 279.658875,319.725220 
	C279.660492,314.076782 279.736206,308.428314 279.912598,302.325226 
z"/>
<path fill="#000000" opacity="1.000000" stroke="none" 
	d="
M636.160522,301.020477 
	C640.083313,300.185303 641.481812,301.611115 641.365723,305.140381 
	C641.206970,309.964417 641.578430,314.813385 641.270691,319.622742 
	C640.997375,323.894592 642.745117,325.397675 646.770020,324.945343 
	C647.754700,324.834686 648.766235,324.944122 649.764526,324.977417 
	C651.825378,325.046021 653.269958,325.693390 653.312500,328.155090 
	C653.354858,330.606659 652.052368,331.144440 649.910706,331.359070 
	C634.670898,332.886658 634.524292,332.911865 634.739868,317.875946 
	C634.819519,312.315430 633.486328,306.624603 636.160522,301.020477 
z"/>
<path fill="#000000" opacity="1.000000" stroke="none" 
	d="
M211.481537,330.407043 
	C205.530518,331.705719 205.068069,331.375183 205.022430,325.872009 
	C204.967377,319.233704 204.955902,312.594360 205.012680,305.956207 
	C205.033524,303.519562 204.659592,300.780640 208.524719,300.681793 
	C212.352997,300.583954 212.281494,303.130035 212.214737,305.693695 
	C212.003433,313.809723 212.759583,321.943665 211.481537,330.407043 
z"/>
<path fill="#000000" opacity="1.000000" stroke="none" 
	d="
M480.833923,301.029236 
	C483.241791,304.237396 482.139282,307.629303 482.262268,310.853699 
	C482.457794,315.981995 482.358521,321.123871 482.289337,326.258789 
	C482.259155,328.498444 482.734253,331.153931 479.128021,331.257660 
	C475.559052,331.360352 475.729797,328.855194 475.720215,326.506165 
	C475.691162,319.382446 475.804138,312.256592 475.662567,305.135559 
	C475.593262,301.649628 476.910126,300.179901 480.833923,301.029236 
z"/>
<path fill="#000000" opacity="1.000000" stroke="none" 
	d="
M152.669464,316.995697 
	C152.683273,312.339142 152.719193,308.179932 152.702774,304.020905 
	C152.693848,301.754822 153.693771,300.723022 156.022278,300.722565 
	C158.367966,300.722107 159.318665,301.792877 159.311279,304.043152 
	C159.285065,312.028687 159.279022,320.014313 159.299377,327.999847 
	C159.305099,330.241608 158.412750,331.347443 156.029846,331.303223 
	C153.719696,331.260376 152.704971,330.236938 152.715424,327.973877 
	C152.731583,324.480438 152.687988,320.986694 152.669464,316.995697 
z"/>
</svg>